Coordinates
version=1
nRows=14
nColumns=40
inDegrees=yes

Units are S.I. units (second, meters, Newtons, ...)
Angles are in degrees.

endheader
time	pelvis_tilt	pelvis_list	pelvis_rotation	pelvis_tx	pelvis_ty	pelvis_tz	hip_flexion_r	hip_adduction_r	hip_rotation_r	knee_angle_r	knee_angle_r_beta	ankle_angle_r	subtalar_angle_r	mtp_angle_r	hip_flexion_l	hip_adduction_l	hip_rotation_l	knee_angle_l	knee_angle_l_beta	ankle_angle_l	subtalar_angle_l	mtp_angle_l	lumbar_extension	lumbar_bending	lumbar_rotation	arm_flex_r	arm_add_r	arm_rot_r	elbow_flex_r	pro_sup_r	wrist_flex_r	wrist_dev_r	arm_flex_l	arm_add_l	arm_rot_l	elbow_flex_l	pro_sup_l	wrist_flex_l	wrist_dev_l
      8.16000000	     -2.57755217	     -5.61562653	      4.82348954	      1.07975691	      0.93260424	      0.51673337	     10.92894013	      4.77250224	    -16.60066766	     15.91092285	     15.91092285	      9.37462454	     -1.00252447	     -3.41274111	     33.09105501	    -12.68324435	      2.87534543	     59.58545821	     59.58545821	     11.40066071	    -18.91855265	     16.67169238	    -11.07962172	      5.84240119	      2.21633390	     10.26829850	    -15.14481528	     -8.03050738	     56.04314392	     45.18216815	      0.00000000	      0.00000000	     11.09279443	     -8.02105764	     -0.41084087	     39.20183262	     45.46169039	      0.00000000	      0.00000000
      8.17121429	     -2.70876462	     -5.54038457	      4.92429575	      1.07777744	      0.93279713	      0.51707901	     10.39662011	      4.77682111	    -16.63562479	     15.64327970	     15.64327970	      9.68806466	     -0.80174636	     -3.50171593	     34.19302014	    -12.52585367	      2.49170014	     56.70292692	     56.70292692	     11.46774804	    -18.95342346	     16.59934145	    -11.10059533	      5.68714714	      1.84522955	     12.80815632	    -15.03557488	     -8.12900276	     58.25125183	     45.12521014	      0.00000000	      0.00000000	      9.49746620	     -8.11942805	     -0.25710289	     37.45316773	     45.42840985	      0.00000000	      0.00000000
      8.18242857	     -2.78990403	     -5.58357600	      5.05385452	      1.07587865	      0.93294214	      0.51735244	      9.73838287	      4.90911233	    -16.89470980	     15.22362293	     15.22362293	      9.96650592	     -0.27770529	     -3.59079347	     35.01544123	    -12.44363490	      2.14017422	     53.45474449	     53.45474449	     11.32008356	    -18.91913304	     16.30013838	    -11.18139266	      5.73356685	      1.55905371	     15.12991347	    -15.10087538	     -7.96074604	     61.18801073	     45.03516539	      0.00000000	      0.00000000	      8.20207707	     -8.04828753	     -0.10625971	     35.12642744	     45.40608491	      0.00000000	      0.00000000
      8.19364286	     -2.99547971	     -5.55504499	      5.06953067	      1.07399850	      0.93285276	      0.51759391	      9.27575192	      4.96009682	    -16.88085988	     14.90877744	     14.90877744	     10.25362684	     -0.01488436	     -3.66990388	     35.69954444	    -12.20986829	      1.80007347	     49.94116493	     49.94116493	     11.23402858	    -18.79347273	     16.49354413	    -11.09552362	      5.63865600	      1.95181775	     17.44507660	    -15.55965066	     -8.08731820	     62.94753274	     44.99349084	      0.00000000	      0.00000000	      6.87665752	     -7.79027085	      0.01048264	     33.89634819	     45.37680488	      0.00000000	      0.00000000
      8.20485714	     -3.00649137	     -5.61014497	      5.18028885	      1.07236993	      0.93295927	      0.51770761	      8.44934216	      5.06039219	    -17.54661746	     14.35153460	     14.35153460	     10.57391129	      1.32251586	     -3.81672587	     35.91325661	    -11.99972552	      1.59208791	     46.02856372	     46.02856372	     10.33050996	    -18.66198715	     14.69048089	    -11.28481446	      5.73912198	      2.16739370	     18.59867371	    -16.19949693	     -7.23565204	     68.26653256	     44.81580367	      0.00000000	      0.00000000	      6.83139944	     -7.38810752	      0.25025045	     29.06992633	     45.39968306	      0.00000000	      0.00000000
      8.21607143	     -3.26230388	     -5.84940785	      5.12691432	      1.07056976	      0.93242396	      0.51802336	      8.16686976	      5.38711110	    -17.51607510	     14.20958363	     14.20958363	     10.84039463	      1.40848085	     -3.92257515	     36.44805266	    -11.97388583	      1.48594849	     42.35062178	     42.35062178	     10.38602644	    -17.92452748	     15.07157362	    -11.11486890	      5.94405480	      2.80831887	     20.81562422	    -16.76319306	     -7.59153629	     69.38337723	     44.80338828	      0.00000000	      0.00000000	      5.55113340	     -7.17801059	      0.29663589	     28.42896398	     45.37445406	      0.00000000	      0.00000000
      8.22728571	     -3.19411132	     -5.72137022	      5.16789499	      1.06925625	      0.93261714	      0.51788668	      7.02408506	      5.38619815	    -17.88589391	     13.24992898	     13.24992898	     11.13031132	      2.67434948	     -3.98213073	     36.16150539	    -11.45573161	      1.44476375	     38.14068650	     38.14068650	      9.34014328	    -17.57200947	     13.32367819	    -11.40092436	      5.82212567	      2.43831395	     22.89829771	    -16.32995270	     -7.73455065	     73.54944554	     44.71319562	      0.00000000	      0.00000000	      4.57284998	     -7.11768754	      0.61631241	     25.59036327	     45.35682420	      0.00000000	      0.00000000
      8.23850000	     -3.54587294	     -6.02615721	      5.05637154	      1.06760600	      0.93167164	      0.51805637	      6.79416996	      5.77355158	    -17.84720125	     13.01917802	     13.01917802	     11.40147909	      2.84777623	     -4.10148246	     36.65064120	    -11.44701401	      1.52670853	     34.52860819	     34.52860819	      9.41415148	    -16.23561879	     13.67190228	    -11.09013919	      6.11856010	      3.08138637	     25.17421990	    -16.88319322	     -8.06826310	     74.67661873	     44.69988190	      0.00000000	      0.00000000	      3.23655203	     -6.94540320	      0.65292077	     25.01085312	     45.32968729	      0.00000000	      0.00000000
      8.24971429	     -3.47368602	     -5.96029330	      5.01361952	      1.06661860	      0.93162807	      0.51789963	      5.49972700	      5.88778729	    -18.19525217	     11.79377281	     11.79377281	     11.57077696	      4.23891412	     -4.25230007	     36.21343297	    -11.15625196	      1.25305804	     30.47034173	     30.47034173	      8.55240515	    -14.63205022	     11.62669578	    -11.36110702	      6.05515317	      2.89823567	     27.14927858	    -16.51657089	     -7.89078604	     78.63704539	     44.62232397	      0.00000000	      0.00000000	      1.88893604	     -6.98059925	      1.27092376	     23.60572972	     45.23768597	      0.00000000	      0.00000000
      8.26092857	     -3.63294738	     -6.13514045	      4.90805094	      1.06547559	      0.93089197	      0.51784825	      4.70623912	      6.23688846	    -18.13557825	     10.97150747	     10.97150747	     11.79233309	      4.78484575	     -4.28981405	     36.27090950	    -11.11342819	      1.09003473	     27.01478478	     27.01478478	      8.60406850	    -12.48535695	     11.72470537	    -11.26623290	      6.22190425	      2.88966115	     29.54310354	    -16.19882386	     -8.04268920	     80.54903302	     44.58769042	      0.00000000	      0.00000000	      0.34554131	     -6.94890844	      1.48592436	     22.94369999	     45.17792438	      0.00000000	      0.00000000
      8.27214286	     -3.80835568	     -6.27516503	      4.76153993	      1.06448456	      0.93000693	      0.51770115	      3.91652015	      6.52982262	    -18.07617264	     10.16559948	     10.16559948	     12.04281648	      5.41949193	     -4.37436187	     36.28400849	    -11.06870996	      0.78595386	     23.78217854	     23.78217854	      8.64358637	    -10.26235532	     11.92221106	    -11.12150653	      6.35189959	      3.02458152	     31.74600232	    -16.00940912	     -8.07126141	     82.39531886	     44.54678513	      0.00000000	      0.00000000	     -1.19311409	     -6.92893886	      1.66126679	     22.45716433	     45.11930719	      0.00000000	      0.00000000
      8.28335714	     -3.97068821	     -6.47923040	      4.62504287	      1.06359566	      0.92894932	      0.51746558	      3.06684609	      6.89589932	    -18.03637392	      9.28606658	      9.28606658	     12.26433194	      6.13733691	     -4.46194402	     36.34750483	    -11.10139383	      0.41592841	     20.97136157	     20.97136157	      8.64142226	     -8.06434300	     12.12712893	    -11.01125152	      6.57040092	      3.11921966	     33.95352055	    -15.78301725	     -8.02861743	     84.36915187	     44.49982165	      0.00000000	      0.00000000	     -2.75198137	     -6.85981190	      1.86682319	     22.13815317	     45.05003443	      0.00000000	      0.00000000
      8.29457143	     -4.07582473	     -6.71058275	      4.48630981	      1.06291746	      0.92776655	      0.51708350	      2.08711935	      7.29831865	    -18.00652622	      8.30021904	      8.30021904	     12.45630253	      6.97528996	     -4.57338381	     36.45738418	    -11.19044243	     -0.12074734	     18.77257632	     18.77257632	      8.68851386	     -5.99095322	     12.23880978	    -10.93842331	      6.83775526	      3.17659804	     36.09592649	    -15.54198525	     -7.87099277	     86.57316987	     44.44767577	      0.00000000	      0.00000000	     -4.45559910	     -6.81571618	      2.21437958	     22.17687900	     44.94440581	      0.00000000	      0.00000000
      8.30578571	     -4.20721762	     -6.94795242	      4.32351131	      1.06232648	      0.92640455	      0.51661869	      1.18373404	      7.68077378	    -17.91648503	      7.42973216	      7.42973216	     12.67003564	      7.68985765	     -4.72595383	     36.63487654	    -11.29034177	     -0.76087574	     17.09816237	     17.09816237	      8.69612774	     -4.38432109	     12.32718509	    -10.81829309	      7.10759158	      3.30656512	     38.10837473	    -15.38282515	     -7.64863090	     88.68988471	     44.40889783	      0.00000000	      0.00000000	     -6.29436738	     -6.85416830	      2.88972272	     22.77948123	     44.76914703	      0.00000000	      0.00000000
